<?xml version="1.0" encoding="utf-8"?>
<svg viewBox="0 0 256 256" xmlns="http://www.w3.org/2000/svg">
  <path d="M 179.803 91.043 L 76.197 91.043 L 128 137.646 L 179.803 91.043 Z M 69.856 160.875 L 107.566 129.069 L 69.856 95.15 L 69.856 160.875 Z M 237.34 128 C 237.34 188.387 188.387 237.34 128 237.34 C 67.613 237.34 18.66 188.387 18.66 128 C 18.66 67.613 67.613 18.66 128 18.66 C 188.387 18.66 237.34 67.613 237.34 128 Z M 76.346 164.952 L 179.652 164.952 L 142.963 133.989 L 130.437 145.256 C 129.745 145.881 128.87 146.192 128 146.192 C 127.13 146.192 126.258 145.881 125.563 145.256 L 113.037 133.989 L 76.346 164.952 Z M 186.144 160.875 L 186.144 95.15 L 148.434 129.069 L 186.144 160.875 Z" style="stroke: none; stroke-width: 1; stroke-dasharray: none; stroke-linecap: butt; stroke-linejoin: miter; stroke-miterlimit: 10; fill: rgb(255,255,255); fill-rule: nonzero; opacity: 1;"/>
</svg>