<?xml version="1.0" encoding="UTF-8" standalone="no" ?>
<!DOCTYPE svg PUBLIC "-//W3C//DTD SVG 1.1//EN" "http://www.w3.org/Graphics/SVG/1.1/DTD/svg11.dtd">
<svg xmlns="http://www.w3.org/2000/svg" xmlns:xlink="http://www.w3.org/1999/xlink" version="1.1" width="500" height="500" viewBox="0 0 500 500" xml:space="preserve">
<desc>Created with Fabric.js 4.6.0</desc>
<defs>
</defs>
<g transform="matrix(1.53 0 0 1.53 250 250)" id="GOBqr2EEez70yp7rsgzVB"  >
<path style="stroke: none; stroke-width: 1; stroke-dasharray: none; stroke-linecap: butt; stroke-dashoffset: 0; stroke-linejoin: miter; stroke-miterlimit: 4; fill: rgb(255,255,255); fill-rule: nonzero; opacity: 1;" vector-effect="non-scaling-stroke"  transform=" translate(0, 0)" d="M 0.00106 -124.84045 C -70.68271 -124.84045 -128 -67.53376 -128 3.1606099999999913 C -128 59.71482999999999 -91.3238 107.69509 -40.465059999999994 124.62044999999999 C -34.067969999999995 125.80533 -31.719409999999996 121.84371999999999 -31.719409999999996 118.46287999999998 C -31.719409999999996 115.41058999999998 -31.838109999999997 105.32744999999998 -31.893219999999996 94.63171999999999 C -67.50323999999999 102.37477999999999 -75.01738 79.52926 -75.01738 79.52926 C -80.84004 64.73415 -89.22959 60.80009 -89.22959 60.80009 C -100.84312 52.855669999999996 -88.35418 53.018879999999996 -88.35418 53.018879999999996 C -75.50066 53.92185 -68.73264 66.20942 -68.73264 66.20942 C -57.31624000000001 85.77797 -38.788430000000005 80.12064 -31.484140000000004 76.85002999999999 C -30.335290000000004 68.57705999999999 -27.018050000000002 62.93032999999999 -23.357430000000004 59.733909999999995 C -51.78821000000001 56.497209999999995 -81.67519 45.521699999999996 -81.67519 -3.5247400000000084 C -81.67519 -17.499550000000006 -76.67495 -28.918070000000007 -68.48677 -37.88205000000001 C -69.81579 -41.106030000000004 -74.19709 -54.124880000000005 -67.24678 -71.75608 C -67.24678 -71.75608 -56.49807 -75.19626 -32.03737 -58.63548 C -21.827040000000004 -61.471560000000004 -10.876960000000004 -62.89384 0.0010499999999993292 -62.9426 C 10.879059999999999 -62.89385 21.837619999999998 -61.47157 32.06702 -58.63548 C 56.49804 -75.19626 67.23191 -71.75608 67.23191 -71.75608 C 74.19918 -54.12488 69.81576 -41.10603 68.48674 -37.88205 C 76.694 -28.91808 81.66033 -17.49955 81.66033 -3.5247400000000013 C 81.66033 45.63828 51.716120000000004 56.46331 23.21327 59.63217 C 27.80442 63.60438 31.89533 71.39407 31.89533 83.33615 C 31.89533 100.46287000000001 31.74696 114.24692 31.74696 118.46289 C 31.74696 121.86916000000001 34.051010000000005 125.86045 40.53924 124.6035 C 91.37042 107.65907 127.99999 59.69575999999999 127.99999 3.1606199999999944 C 127.99999 -67.53375000000001 70.69118 -124.84044 0.0010499999999922238 -124.84044 z M -80.05944 57.49976 C -80.34134999999999 58.135650000000005 -81.34182 58.32642 -82.25327 57.88977 C -83.18167 57.4722 -83.70311 56.60527 -83.40212 55.96725 C -83.12657 55.31228 -82.12397 55.12999 -81.19769 55.56876 C -80.26717 55.986329999999995 -79.73725999999999 56.86174 -80.05944 57.499759999999995 z M -73.76321 63.11781 C -74.37367 63.68376 -75.56703 63.420919999999995 -76.37673 62.52643 C -77.21399 61.63406 -77.37084 60.4407 -76.75191 59.866279999999996 C -76.12237999999999 59.300329999999995 -74.96504999999999 59.56529 -74.12567 60.45766 C -73.28841 61.36063 -73.1252 62.54551 -73.76321 63.11781 z M -69.44376 70.3059 C -70.22803 70.85064999999999 -71.51041 70.33981 -72.30315999999999 69.20156999999999 C -73.08743 68.06331999999999 -73.08743 66.69827 -72.2862 66.1514 C -71.49132999999999 65.60453 -70.22802999999999 66.09629 -69.42468 67.22605999999999 C -68.64253 68.38338999999999 -68.64253 69.74843999999999 -69.44376 70.3059 z M -62.13864 78.63073 C -62.84024 79.4044 -64.33459 79.19668 -65.42833 78.14109 C -66.5475 77.10882000000001 -66.85909000000001 75.64415000000001 -66.15537 74.87048 C -65.44529 74.09469 -63.942460000000004 74.31301 -62.840250000000005 75.36012 C -61.729560000000006 76.39027 -61.39041 77.86554 -62.138650000000005 78.63073 z M -52.69748 81.44109 C -53.006949999999996 82.44368 -54.44619 82.8994 -55.89602 82.47336 C -57.34374 82.03459 -58.29122 80.86031 -57.99871 79.84712 C -57.697720000000004 78.83817 -56.252120000000005 78.36337 -54.79169 78.81909 C -53.346090000000004 79.25574 -52.39649 80.42154000000001 -52.697480000000006 81.44109 z M -41.95305 82.63318 C -41.91702 83.68876 -43.146409999999996 84.56418 -44.66831 84.58324999999999 C -46.19869 84.61716 -47.43656 83.76294999999999 -47.45352 82.72431999999999 C -47.45352 81.65813999999999 -46.25168 80.79119999999999 -44.7213 80.76576999999999 C -43.1994 80.73608999999999 -41.95304 81.58394999999999 -41.95304 82.63318 z M -31.39785 82.22858 C -31.21556 83.25873 -32.27326 84.31643 -33.784569999999995 84.59834 C -35.270439999999994 84.86965 -36.646089999999994 84.23375999999999 -36.83474 83.21208999999999 C -37.019149999999996 82.15650999999998 -35.94237 81.09880999999999 -34.458619999999996 80.82536999999999 C -32.94519 80.56253 -31.590739999999997 81.18146999999999 -31.397849999999995 82.22856999999999 z" stroke-linecap="round" />
</g>
</svg>