<?xml version="1.0" encoding="utf-8"?>
<svg viewBox="0 0 666.66669 666.66669" xmlns="http://www.w3.org/2000/svg">
  <path d="M 249.843 287.651 C 249.856 284.347 249.275 282.981 245.535 283.023 C 226.799 283.216 208.057 283.196 189.316 283.036 C 185.941 283.005 185.157 284.08 185.161 287.296 C 185.252 349.037 185.268 410.776 185.179 472.519 C 185.175 476.109 186.327 476.964 189.744 476.935 C 208.147 476.781 226.553 476.724 244.955 476.969 C 249.1 477.024 249.865 475.669 249.851 471.868 C 249.707 441.248 249.772 410.628 249.772 380.011 C 249.777 349.224 249.728 318.44 249.843 287.651 Z M 183.765 210.459 C 175.673 231.169 187.915 252.6 209.873 256.164 C 230.548 259.52 248.46 249.551 252.881 232.232 C 258.733 209.296 242.693 189.74 218.004 189.713 C 201.741 189.693 188.816 197.524 183.765 210.459 Z M 349.703 287.265 C 349.809 284.012 348.876 283.004 345.531 283.035 C 326.953 283.192 308.376 283.223 289.796 283.015 C 285.953 282.972 285.175 284.072 285.2 287.792 C 285.437 321.768 285.504 355.744 285.499 389.724 C 285.488 417.336 285.377 444.957 285.105 472.567 C 285.067 476.273 286.277 476.957 289.649 476.932 C 308.225 476.785 326.803 476.799 345.383 476.924 C 348.528 476.945 349.947 476.276 349.691 472.804 C 349.399 468.809 349.623 464.779 349.623 460.76 C 349.623 430.129 349.737 399.5 349.575 368.869 C 349.499 356.057 353.421 345.171 363.455 336.94 C 382.025 321.697 408.104 329.744 414.753 352.667 C 416.828 359.812 417.335 367.145 417.347 374.525 C 417.38 406.995 417.432 439.465 417.283 471.937 C 417.263 475.864 418.284 477.003 422.275 476.957 C 440.517 476.741 458.765 476.739 477.004 476.957 C 481.023 477.007 481.988 475.856 481.965 471.935 C 481.817 437.119 481.872 402.304 481.891 367.487 C 481.897 359.104 481.269 350.779 480.003 342.487 C 474.669 307.517 453.776 284.663 421.128 279.639 C 392.876 275.296 368.661 282.569 351.709 307.307 C 351.361 307.812 350.877 308.221 349.633 309.559 C 349.633 301.28 349.472 294.267 349.703 287.265 Z M 585.581 333.335 C 585.581 472.647 472.644 585.584 333.332 585.584 C 194.015 585.584 81.084 472.647 81.084 333.335 C 81.084 194.019 194.015 81.085 333.332 81.085 C 472.644 81.085 585.581 194.019 585.581 333.335 Z" style="fill: rgb(254, 254, 254); fill-opacity: 1; fill-rule: evenodd; stroke: none;" id="path30"/>
</svg>