<?xml version="1.0" encoding="utf-8"?>
<svg viewBox="0 0 256 256" xmlns="http://www.w3.org/2000/svg">
  <path d="M 128 21.509 C 69.186 21.509 21.509 69.186 21.509 128 C 21.509 186.814 69.186 234.491 128 234.491 C 186.814 234.491 234.491 186.814 234.491 128 C 234.491 69.186 186.814 21.509 128 21.509 Z M 175.05 103.871 C 175.098 104.913 175.119 105.959 175.119 107.009 C 175.119 139.087 150.702 176.08 106.049 176.08 C 92.337 176.08 79.579 172.061 68.836 165.175 C 70.736 165.4 72.667 165.511 74.626 165.511 C 86 165.511 96.467 161.63 104.778 155.12 C 94.152 154.921 85.19 147.904 82.1 138.259 C 83.579 138.543 85.1 138.696 86.662 138.696 C 88.877 138.696 91.024 138.398 93.061 137.842 C 81.955 135.615 73.585 125.802 73.585 114.043 C 73.585 113.936 73.585 113.834 73.59 113.733 C 76.863 115.552 80.604 116.646 84.585 116.769 C 78.067 112.419 73.782 104.984 73.782 96.561 C 73.782 92.115 74.981 87.947 77.069 84.36 C 89.041 99.049 106.931 108.708 127.105 109.724 C 126.689 107.946 126.476 106.094 126.476 104.188 C 126.476 90.787 137.348 79.913 150.756 79.913 C 157.737 79.913 164.046 82.864 168.476 87.583 C 174.007 86.494 179.199 84.471 183.891 81.69 C 182.076 87.358 178.228 92.115 173.216 95.12 C 178.127 94.533 182.808 93.232 187.157 91.298 C 183.91 96.171 179.79 100.447 175.05 103.871 Z" style="stroke: none; stroke-width: 1; stroke-dasharray: none; stroke-linecap: butt; stroke-linejoin: miter; stroke-miterlimit: 10; fill-rule: nonzero; opacity: 1; fill: rgb(255, 255, 255);" stroke-linecap="round"/>
</svg>